<svg version="1.1" xmlns="http://www.w3.org/2000/svg" xmlns:xlink="http://www.w3.org/1999/xlink" width="18.06169" height="14.79771" viewBox="0,0,18.06169,14.79771"><g transform="translate(-230.96915,-172.60115)"><g data-paper-data="{&quot;isPaintingLayer&quot;:true}" fill="#88c0d0" fill-rule="nonzero" stroke="#ffffff" stroke-width="0" stroke-linecap="butt" stroke-linejoin="miter" stroke-miterlimit="10" stroke-dasharray="" stroke-dashoffset="0" style="mix-blend-mode: normal"><path d="M239.48848,184.63725c0.63186,0.63124 0.63186,1.65575 0,2.28748c-0.63157,0.63216 -1.65578,0.63216 -2.28794,0c-2.49417,-2.4942 -5.75761,-5.75777 -5.75761,-5.75777c-0.6317,-0.63157 -0.6317,-1.65592 0,-2.28778c0,0 3.78162,-3.78205 5.80407,-5.8042c0.6317,-0.63186 1.65578,-0.6317 2.28794,0c0.63183,0.6317 0.63183,1.65592 0,2.28778c-2.4942,2.49404 -3.03487,3.04119 -3.03487,3.04119c0,0 8.05316,0.00334 10.91297,0.00334c0.89353,0 1.61781,0.72415 1.61781,1.61768c0,0.89336 -0.72429,1.61781 -1.61781,1.61781c-3.41109,0 -10.92176,-0.00318 -10.92176,-0.00318c0,0 0.97471,0.97458 2.99719,2.99765z" data-paper-data="{&quot;index&quot;:null}"/></g></g></svg>