<svg version="1.1" xmlns="http://www.w3.org/2000/svg" xmlns:xlink="http://www.w3.org/1999/xlink" width="18.91565" height="18.76004" viewBox="0,0,18.91565,18.76004"><g transform="translate(-229.79217,-171.36998)"><g data-paper-data="{&quot;isPaintingLayer&quot;:true}" fill-rule="nonzero" stroke-linecap="butt" stroke-linejoin="miter" stroke-miterlimit="10" stroke-dasharray="" stroke-dashoffset="0" style="mix-blend-mode: normal"><path d="M239.35292,181.97276c2.22084,-1.78215 3.29115,-2.64067 3.29115,-2.64067c0,0 -0.0678,0.00003 -0.1939,0.00006c0.37658,-0.37699 0.60181,-0.85545 0.60181,-1.37613c0,-0.56694 -0.26704,-1.08384 -0.70571,-1.47417c0.18609,-0.00006 0.28816,-0.0001 0.28816,-0.0001c0,0 -0.59369,-0.48199 -3.33253,-2.67902c-0.6938,-0.55662 -0.6938,-1.45885 0,-2.01533c0.69416,-0.55648 1.81868,-0.55662 2.51234,0c2.2208,1.78134 6.37333,5.11299 6.37333,5.11299c0.69367,0.55662 0.69367,1.45898 0,2.01533c0,0 -3.58352,2.87492 -6.32232,5.0721c-0.69416,0.55688 -1.81883,0.55688 -2.51234,0c-0.69384,-0.5565 -0.69384,-1.45901 0,-2.01508z" data-paper-data="{&quot;index&quot;:null}" fill="#88c0d0" stroke="#ffffff" stroke-width="0"/><path d="M244.73233,186.50254c-1.41415,1.30759 -3.44651,2.12748 -5.70491,2.12748c-4.27206,0 -7.73525,-2.9338 -7.73525,-6.55282c0,-3.61902 3.46319,-6.55282 7.73525,-6.55282c3.31814,0 5.16419,0.63301 6.26266,3.11919" fill="none" stroke="#88c0d0" stroke-width="3"/></g></g></svg>