<svg width="24" height="24" viewBox="0 0 24 24" fill="none" xmlns="http://www.w3.org/2000/svg">
<path d="M17.2766 11.6383C17.2766 10.415 16.8787 9.22482 16.143 8.24744C15.4073 7.27006 14.3737 6.55848 13.1981 6.22005C12.0225 5.88162 10.7687 5.93472 9.62599 6.37132C8.48323 6.80793 7.51346 7.60435 6.86302 8.64043C6.21259 9.67651 5.91676 10.896 6.02019 12.115C6.12361 13.3339 6.62068 14.4862 7.43638 15.3978C8.25208 16.3095 9.34216 16.9312 10.5421 17.169C11.7421 17.4068 12.9869 17.2479 14.0887 16.7163" stroke="#88C0D0" stroke-width="3" stroke-linecap="round"/>
<path d="M17.6779 12.0396L15.867 11.2062" stroke="#88C0D0" stroke-width="3" stroke-linecap="round"/>
<path d="M17.6779 12.0396L18.5113 10.2287" stroke="#88C0D0" stroke-width="3" stroke-linecap="round"/>
</svg>
