<svg version="1.1" xmlns="http://www.w3.org/2000/svg" xmlns:xlink="http://www.w3.org/1999/xlink" width="18.70372" height="18.70698" viewBox="0,0,18.70372,18.70698"><g transform="translate(-230.64814,-170.64651)"><g data-paper-data="{&quot;isPaintingLayer&quot;:true}" fill="#88c0d0" fill-rule="nonzero" stroke="#bc192d" stroke-width="0" stroke-linecap="butt" stroke-linejoin="miter" stroke-miterlimit="10" stroke-dasharray="" stroke-dashoffset="0" style="mix-blend-mode: normal"><path d="M241.77409,187.57416c-0.00065,0.98329 -0.79804,1.77961 -1.78167,1.77933c-0.98294,-0.00102 -1.77962,-0.79875 -1.77898,-1.78204l0.0045,-5.75637l-5.75517,0.11131c-0.98297,0.019 -1.79511,-0.76238 -1.8143,-1.74588c-0.01882,-0.98279 0.76239,-1.7951 1.74588,-1.8143l5.82663,-0.11285l0.00438,-5.82788c0.00084,-0.98311 0.79839,-1.77962 1.78204,-1.77897c0.98293,0.00066 1.77944,0.79857 1.77879,1.78186l-0.0045,5.75602l5.75518,-0.11096c0.98314,-0.01883 1.79565,0.76255 1.81465,1.74552c0.01901,0.98332 -0.76274,1.79546 -1.74588,1.81465l-5.82683,0.11232z"/></g></g></svg>