<svg version="1.1" xmlns="http://www.w3.org/2000/svg" xmlns:xlink="http://www.w3.org/1999/xlink" width="18.42295" height="18.69994" viewBox="0,0,18.42295,18.69994"><g transform="translate(-230.78852,-170.65003)"><g data-paper-data="{&quot;isPaintingLayer&quot;:true}" fill="#88c0d0" fill-rule="nonzero" stroke="#bc192d" stroke-width="0" stroke-linecap="butt" stroke-linejoin="miter" stroke-miterlimit="10" stroke-dasharray="" stroke-dashoffset="0" style="mix-blend-mode: normal"><path d="M248.46214,185.44688c0.8838,0.91486 0.85862,2.37249 -0.05624,3.25694c-0.91486,0.88314 -2.37314,0.85796 -3.25694,-0.05689l-5.1733,-5.35641l-5.25112,5.27989c-0.89688,0.90178 -2.35483,0.90571 -3.25726,0.0085c-0.90146,-0.89688 -0.9057,-2.35483 -0.0085,-3.25727l5.31618,-5.34561l-5.23772,-5.42278c-0.88347,-0.91486 -0.85829,-2.37281 0.0569,-3.25694c0.91453,-0.88347 2.37281,-0.85796 3.25661,0.05689l5.17297,5.35608l5.25145,-5.27958c0.8972,-0.90178 2.35549,-0.90604 3.25726,-0.00915c0.90211,0.89721 0.9057,2.35548 0.00883,3.25759l-5.31684,5.34529z"/></g></g></svg>