<svg version="1.1" xmlns="http://www.w3.org/2000/svg" xmlns:xlink="http://www.w3.org/1999/xlink" width="18.0617" height="14.79771" viewBox="0,0,18.0617,14.79771"><g transform="translate(-230.96915,-172.60114)"><g data-paper-data="{&quot;isPaintingLayer&quot;:true}" fill="#88c0d0" fill-rule="nonzero" stroke="#ffffff" stroke-width="0" stroke-linecap="butt" stroke-linejoin="miter" stroke-miterlimit="10" stroke-dasharray="" stroke-dashoffset="0" style="mix-blend-mode: normal"><path d="M240.51152,184.63725c2.02248,-2.02307 2.99719,-2.99765 2.99719,-2.99765c0,0 -7.51066,0.00318 -10.92175,0.00318c-0.89353,0 -1.61781,-0.72445 -1.61781,-1.61781c0,-0.89353 0.72428,-1.61769 1.61781,-1.61769c2.85982,0 10.91297,-0.00334 10.91297,-0.00334c0,0 -0.54066,-0.54715 -3.03487,-3.04119c-0.63183,-0.63187 -0.63183,-1.65607 0,-2.28778c0.63216,-0.63171 1.65624,-0.63187 2.28794,0c2.02244,2.02215 5.80407,5.8042 5.80407,5.8042c0.63171,0.63187 0.63171,1.65621 0,2.28778c0,0 -3.26344,3.26357 -5.75761,5.75778c-0.63216,0.63216 -1.65637,0.63216 -2.28794,0c-0.63187,-0.63173 -0.63187,-1.65625 0,-2.28749z" data-paper-data="{&quot;index&quot;:null}"/></g></g></svg>